# xmcd
# 
# Track frame offsets:
#     150
#     18637
#     39642
#     58083
# 
# Disc length: 1051
# 
# Revision: 0
# Processed by: cddbd v1.5.2PL0 Copyright (c) Steve Scherf et al.
# Submitted via: fre:ac v1.0.17
# 
DISCID=31041904
DTITLE=Petit milady - ハコネハコイリムスメ
DYEAR=2015
DGENRE=Anime
TTITLE0=ハコネハコイリムスメ
TTITLE1=モシモトラベル　～ふたりで旅行に行ってみた～
TTITLE2=ハコネハコイリムスメ 　（Instrumental）
TTITLE3=モシモトラベル　～ふたりで旅行に行ってみた～　（Instrumental）
EXTD=
EXTT0=
EXTT1=
EXTT2=
EXTT3=
PLAYORDER=
